<svg xmlns="http://www.w3.org/2000/svg" viewBox="0 0 100 100" fill="none">
  <!-- Document page -->
  <path d="M8 4 H60 L76 20 V90 H8 Z" fill="#111111"/>
  <!-- Fold -->
  <path d="M60 4 L60 20 L76 20 Z" fill="#444444"/>

  <!-- Person head -->
  <circle cx="40" cy="30" r="12" fill="white"/>
  <!-- Person shoulders -->
  <path d="M18 58 Q18 43 40 43 Q62 43 62 58 Z" fill="white"/>

  <!-- Text lines -->
  <rect x="14" y="63" width="48" height="4" rx="2" fill="white" opacity="0.55"/>
  <rect x="14" y="71" width="34" height="4" rx="2" fill="white" opacity="0.55"/>

  <!-- Briefcase body -->
  <rect x="44" y="55" width="50" height="38" rx="4" fill="#111111"/>
  <!-- Briefcase handle -->
  <path d="M57 55 L57 48 Q57 43 63 43 L75 43 Q81 43 81 48 L81 55" stroke="#111111" stroke-width="5" fill="none" stroke-linecap="round"/>
  <!-- Briefcase latch -->
  <rect x="60" y="68" width="18" height="11" rx="2" fill="white"/>
  <!-- Center line -->
  <line x1="44" y1="74" x2="94" y2="74" stroke="white" stroke-width="1.5" opacity="0.4"/>
</svg>
